<svg width="269" height="53" viewBox="0 0 269 53" fill="none" xmlns="http://www.w3.org/2000/svg">
<path d="M17.9893 41.1609H26.2034L32.8027 16.589H24.5887L17.9893 41.1609ZM28.3097 41.1609H50.5295L52.3199 34.4213H41.5434L55.5843 22.3459L57.129 16.589H35.3302L33.5046 23.3288H43.8602L29.854 35.404L28.3097 41.1609Z" fill="#FF14B9"/>
<path d="M51.5829 41.1609H73.8028L75.5931 34.4213H64.8165L78.8575 22.3459L80.4022 16.589H58.6034L56.7778 23.3288H67.1334L53.1273 35.404L51.5829 41.1609ZM73.9078 41.1609H82.8593L85.0004 37.8614H93.6006L94.0217 41.1609H102.762L99.0413 16.4137H90.8975L73.9078 41.1609ZM88.651 32.0341L92.477 26.0667L93.1441 32.0341H88.651Z" fill="#FF14B9"/>
<path d="M106.484 41.1609H114.698L119.437 23.5392H126.668L128.528 16.5891H105.852L103.992 23.5392H111.223L106.484 41.1609ZM135.795 41.6523C142.851 41.6523 146.922 37.791 146.922 32.8414C146.922 29.0857 144.255 27.3305 140.077 25.7858C136.672 24.5222 136.146 24.3817 136.146 23.6446C136.146 22.9425 136.883 22.6616 137.936 22.6616C140.534 22.6616 143.167 23.8904 145.027 25.3998L149.731 19.7836C147.063 17.5018 143.166 16.0977 138.778 16.0977C132.074 16.0977 127.721 19.9589 127.721 24.6977C127.721 28.3132 129.863 29.9281 134.426 31.6131C138.006 32.9469 138.462 33.1925 138.462 33.9646C138.462 34.6669 137.726 35.0532 136.672 35.0532C134.075 35.0532 131.196 33.93 128.388 31.578L123.684 37.1943C126.668 39.8971 130.916 41.6523 135.795 41.6523Z" fill="#FF14B9"/>
<path d="M167.809 42.7756L173.074 39.3355L171.284 36.9134C173.706 34.2806 175.181 30.8057 175.181 27.225C175.181 20.942 170.196 16.0977 162.965 16.0977C154.716 16.0977 148.502 22.9077 148.502 30.5249C148.502 36.808 153.487 41.6523 160.718 41.6523C162.684 41.6523 164.545 41.2312 166.264 40.4938L167.809 42.7756ZM161.21 34.7021C158.261 34.7021 156.681 32.6659 156.681 29.9281C156.681 26.6985 158.893 23.3288 162.403 23.3288C165.352 23.3288 166.931 25.3648 166.931 28.1026C166.931 29.0154 166.756 29.9633 166.405 30.8409L164.65 28.2432L159.384 31.6833L161.631 34.7021C161.49 34.7021 161.35 34.7021 161.21 34.7021ZM187.045 41.6523C190.942 41.6523 194.452 40.7394 196.768 38.423C198.489 36.7029 199.752 34.3159 200.63 31.0515L204.526 16.5891H196.172L192.627 29.7876C192.1 31.6834 191.609 32.6309 190.871 33.3683C190.204 34.0351 189.257 34.3861 188.238 34.3861C186.062 34.3861 184.869 33.3332 184.869 31.2971C184.869 30.7355 184.974 30.0683 185.15 29.3665L188.59 16.5891H180.235L176.935 28.8399C176.585 30.1738 176.409 31.5428 176.409 32.8067C176.409 38.3528 180.13 41.6523 187.045 41.6523Z" fill="#FF14B9"/>
<path d="M197.928 41.1609H206.88L209.021 37.8614H217.621L218.042 41.1609H226.783L223.062 16.4137H214.918L197.928 41.1609ZM212.671 32.0341L216.497 26.0667L217.164 32.0341H212.671ZM227.379 41.1609H238.051C243.737 41.1609 247.985 39.5814 250.933 36.6326C253.566 33.9999 254.97 30.63 254.97 26.9443C254.97 23.9607 254.128 21.5734 252.302 19.7484C250.442 17.8877 247.458 16.589 242.684 16.589H233.979L227.379 41.1609ZM237.524 33.9998L240.262 23.7501H241.631C243.597 23.7501 244.826 24.2064 245.598 24.9785C246.23 25.6104 246.616 26.488 246.616 27.8219C246.616 29.3313 245.879 30.9811 244.86 31.9989C243.597 33.2627 241.456 33.9998 238.963 33.9998H237.524Z" fill="#FF14B9"/>
</svg>
