<svg width="195" height="83" viewBox="0 0 195 83" fill="none" xmlns="http://www.w3.org/2000/svg">
<g clip-path="url(#clip0_86_214)">
<path fill-rule="evenodd" clip-rule="evenodd" d="M80.3746 27.9041V15.1282L23.7025 74.5344H61.2259H65.151H74.4952L64.2409 63.7855L70.2209 57.5171L80.3746 68.161V55.3851H89.0282V74.5344V83.188H80.3746H65.151H61.2259H17.8218H9.16821V74.5344V55.3851H17.8218V68.161L74.4952 8.75464H65.4716H61.2259H23.7025L34.0266 19.5767L28.0466 25.845L17.8218 15.1282V27.9041H9.16821V8.75464V0.101074H17.8218H61.2259H65.4716H80.3746H89.0282V8.75464V27.9041H80.3746Z" fill="white"/>
<path fill-rule="evenodd" clip-rule="evenodd" d="M163.766 27.9041V15.1282L107.093 74.5344H144.616H148.543H157.886L147.632 63.7855L153.612 57.5171L163.766 68.161V55.3851H172.42V74.5344V83.188H163.766H148.543H144.616H101.213H92.5591V74.5344V55.3851H101.213V68.161L157.886 8.75464H148.863H144.616H107.093L117.417 19.5767L111.437 25.845L101.213 15.1282V27.9041H92.5591V8.75464V0.101074H101.213H144.616H148.863H163.766H172.42V8.75464V27.9041H163.766Z" fill="white"/>
</g>
<defs>
<clipPath id="clip0_86_214">
<rect width="195" height="83" fill="white"/>
</clipPath>
</defs>
</svg>
